<svg width="580" height="250" xmlns="http://www.w3.org/2000/svg" style="vector-effect: non-scaling-stroke;" stroke="null">
 <!-- Created with Method Draw - http://github.com/duopixel/Method-Draw/ -->
 <g stroke="null">
  <title stroke="null">background</title>
  <rect stroke="null" fill="#fff" id="canvas_background" height="252" width="582" y="-1" x="-1"/>
  <g style="vector-effect: non-scaling-stroke;" stroke="null" display="none" overflow="visible" y="0" x="0" height="100%" width="100%" id="canvasGrid">
   <rect stroke="null" fill="url(#gridpattern)" stroke-width="0" y="0" x="0" height="100%" width="100%"/>
  </g>
 </g>
 <g stroke="null">
  <title stroke="null">Layer 1</title>
  <line stroke="#000" stroke-linecap="null" stroke-linejoin="null" id="svg_29" y2="9.239019" x2="339.474371" y1="9.239019" x1="231.032559" fill-opacity="null" stroke-opacity="null" stroke-width="11" fill="none"/>
  <line stroke-linecap="null" stroke-linejoin="null" id="svg_31" y2="122.826085" x2="262.554321" y1="9.782498" x1="335.380478" fill-opacity="null" stroke-opacity="null" stroke-width="11" stroke="#000" fill="none"/>
  <line stroke-linecap="null" stroke-linejoin="null" id="svg_33" y2="139.130448" x2="173.423801" y1="16.304243" x1="235.923861" fill-opacity="null" stroke-opacity="null" stroke-width="11" stroke="#000" fill="none"/>
  <line stroke="#000" stroke-linecap="null" stroke-linejoin="null" id="svg_34" y2="139.673927" x2="248.967352" y1="139.130448" x1="168.679275" fill-opacity="null" stroke-opacity="null" stroke-width="6" fill="none"/>
  <line stroke-linecap="null" stroke-linejoin="null" id="svg_35" y2="246.195769" x2="183.749898" y1="139.673927" x1="248.967352" fill-opacity="null" stroke-opacity="null" stroke-width="11" stroke="#000" fill="none"/>
  <line stroke="#000" stroke-linecap="null" stroke-linejoin="null" id="svg_36" y2="122.826085" x2="355.489187" y1="122.826085" x1="262.010843" fill-opacity="null" stroke-opacity="null" stroke-width="9" fill="none"/>
  <line stroke-linecap="null" stroke-linejoin="null" id="svg_37" y2="245.108811" x2="183.206419" y1="122.826085" x1="352.228321" fill-opacity="null" stroke-opacity="null" stroke-width="11" stroke="#000" fill="none"/>
  <line stroke-linecap="null" stroke-linejoin="null" id="svg_42" y2="15.217286" x2="326.68638" y1="15.217286" x1="232.11951" fill-opacity="null" stroke-opacity="null" stroke-width="11" stroke="#000" fill="none"/>
  <path d="m182.119461,133.695663c0.543472,0 1.08696,0 1.630432,0c0.543488,0 0.637558,-1.006927 1.08696,-1.630432c0.710571,-0.98587 0.418625,-1.644989 0.543488,-2.17392c0.279205,-1.182739 1.086945,-1.630432 1.086945,-2.17392c0,-0.54348 0.543488,-1.086952 0.543488,-1.630432c0,-0.54348 -0.225128,-1.405319 0.543472,-2.17392c0.384308,-0.3843 0.637558,-0.463448 1.08696,-1.086952c0.710571,-0.98587 1.08696,-1.08696 1.08696,-1.63044c0,-0.54348 0.792831,-0.376862 1.08696,-1.08696c0.207977,-0.502106 0.335495,-1.128326 0.543472,-1.630432c0.294128,-0.710098 0.801239,-1.168129 1.08696,-1.63044c0.638901,-1.03376 1.336304,-1.463829 1.630432,-2.173912c0.207977,-0.502113 0.418625,-1.101501 0.543488,-1.63044c0.279205,-1.182739 1.08696,-1.630432 1.630432,-2.717392c0.543488,-1.08696 1.190384,-2.10952 2.17392,-3.804352c0.60997,-1.051086 0.376389,-1.731529 1.08696,-2.717392c0.449402,-0.623512 1.165375,-1.59465 1.630432,-2.717392c0.657684,-1.587814 1.267761,-2.583229 1.630432,-3.26088c1.307617,-2.443306 0.752777,-4.006531 2.17392,-5.978264c0.898819,-1.247032 1.813858,-2.342392 2.717392,-3.804352c0.404068,-0.653809 1.165375,-1.594643 1.630432,-2.717392c0.6577,-1.587814 1.190384,-2.653 2.17392,-4.347832c0.60997,-1.051086 1.18103,-1.5504 1.630432,-2.173912c0.710571,-0.98587 1.08696,-2.173912 1.630447,-3.260872c0.543488,-1.08696 1.365753,-2.496742 2.173904,-3.804352c0.903549,-1.46196 1.16539,-2.681602 1.630447,-3.804352c0.6577,-1.587807 0.972748,-2.760025 1.630432,-4.347832c0.465057,-1.122749 1.08696,-1.63044 1.630432,-2.717396c0.543488,-1.08696 0.429276,-2.760021 1.08696,-4.347828c0.465057,-1.122749 0.972733,-2.216545 1.630432,-3.804352c0.465057,-1.122753 0.745316,-2.036278 2.17392,-4.347832c0.638885,-1.033756 2.107422,-2.753269 2.717392,-3.804352c0.983551,-1.694828 1.630432,-2.173912 2.17392,-3.260872c0.543472,-1.086956 0.771118,-2.401558 1.630432,-3.260872c0.859314,-0.859318 1.630432,-1.086956 2.17392,-2.173916c0.543472,-1.086956 1.08696,-1.08696 1.08696,-1.630436c0,-0.54348 0.792816,-1.463829 1.086945,-2.173916c0.415955,-1.004219 0.33551,-1.671804 0.543488,-2.173916c0.294128,-0.710085 0.792831,-0.920343 1.08696,-1.630436c0.207977,-0.502108 0.335495,-1.671806 0.543472,-2.173916c0.294128,-0.710093 0.543488,-1.086956 1.08696,-1.630436c0.543472,-0.543478 0.543472,-1.086958 0.543472,-1.630436c0,-0.543478 0.46344,-0.637552 1.08696,-1.086958c0.98587,-0.710577 1.463837,-1.336308 2.17392,-1.630436c1.004211,-0.415964 1.534637,-0.264271 2.717392,-0.543478c1.057877,-0.249731 2.17392,0 3.26088,0c1.08696,0 2.717392,0 3.804352,0c3.26088,0 5.978256,0 8.152176,0c2.17392,0 5.434784,0 8.152191,0c3.260864,0 6.521729,0 9.782623,0c3.260864,0 6.521729,0 9.239136,0c3.804352,0 6.521729,-0.54348 8.695648,-0.54348c2.717407,0 4.891296,0 7.608704,0c2.17392,0 4.347839,0 5.978271,0c1.086945,0 2.17392,0 3.804352,0c1.086945,0 2.17392,0 2.717377,0c0.543488,0 1.246155,-0.384304 1.630463,0c0.384308,0.384298 -0.249359,0.920343 -0.543488,1.630436c-0.207977,0.50211 -0.792847,0.920343 -1.086975,1.630438c-0.207977,0.502108 -0.962067,1.644976 -1.086945,2.173914c-0.279205,1.182749 -0.67099,1.713177 -1.086945,2.717394c-0.588257,1.420187 -1.708862,2.13813 -2.17392,3.260874c-0.657684,1.587814 -1.086975,2.173923 -1.630432,3.260872c-0.543488,1.086964 -1.270386,2.3424 -2.17392,3.804352c-0.404083,0.653812 -1.020477,2.209793 -1.630432,3.260872c-0.983551,1.694839 -1.270386,2.885883 -2.17392,4.347832c-0.808167,1.307625 -1.733856,2.653 -2.717407,4.347828c-0.609985,1.051086 -1.365753,1.953251 -2.17392,3.260876c-0.903534,1.461952 -1.086945,2.717392 -1.630432,3.804352c-0.543488,1.086956 -1.563934,2.753258 -2.17392,3.804348c-0.983551,1.694824 -1.630432,2.717392 -2.17392,3.804356c-0.543457,1.086945 -1.086945,2.173904 -1.630432,2.717392c-1.086945,1.086952 -1.630432,2.173904 -2.17392,3.260872c-0.543457,1.086952 -1.630432,2.173912 -1.086945,2.173912c0.543488,0 0,-1.086952 0,-1.630432c0,-1.63044 0,-3.260872 0,-4.891312c0,-1.086952 0.543488,-2.717392 0.543488,-3.260872c0,-1.086956 0.293732,-2.202995 0.543457,-3.260872c0.279205,-1.182747 0.614502,-2.243874 1.086975,-3.804352c0.567841,-1.875454 1.380707,-2.746471 1.630432,-3.804352c0.279205,-1.182747 1.086945,-2.173916 1.630432,-3.260872c0.543488,-1.086956 1.585663,-1.840702 2.17392,-3.260872c0.415955,-1.004223 0.646881,-2.109531 1.630432,-3.804352c0.609985,-1.05109 1.086975,-1.630444 1.630432,-2.717396c0.543488,-1.086964 0.543488,-1.630428 1.086975,-2.173912c0.543457,-0.543472 0.962067,-1.644978 1.086945,-2.173916c0.279205,-1.182751 0.543488,-1.630444 1.630432,-2.717396c0.543488,-0.543482 0.792847,-0.920341 1.086975,-1.630436c0.207977,-0.502108 0.792816,-1.463821 1.086945,-2.173914c0.207977,-0.50211 1.086975,-1.630438 0.543488,-1.630438c-0.543488,0 -0.543488,0.54348 -1.086975,0.54348c-0.543457,0 -0.543457,0.543478 -1.630432,0.543478c-0.543457,0 -2.17392,0 -3.260864,0c-0.543488,0 -1.086945,0 -2.17392,0c-1.086945,0 -2.717377,0 -4.347839,0c-1.630432,0 -3.804352,0 -6.521729,0c-1.630432,0 -3.260864,0 -4.891296,0c-1.630463,0 -4.347839,0 -5.978271,0c-2.17392,0 -4.252045,-0.264269 -5.434784,-0.543478c-2.115753,-0.49947 -4.347839,-0.54348 -7.065247,-0.54348c-1.630432,0 -2.10791,-0.268185 -3.804352,-0.543478c-1.072906,-0.174109 -2.10791,-0.268185 -3.804352,-0.543478c-1.609375,-0.261166 -3.260864,0 -4.891296,0c-0.543488,0 -2.17392,0 -3.26088,0c-0.543472,0 -1.08696,0 -1.08696,-0.54348c0,-1.086958 0.159195,-1.24614 0.543488,-1.630436c0.7686,-0.768597 3.2677,-0.350845 5.978256,-0.543478c3.833328,-0.272425 9.782639,-0.54348 15.76088,-0.54348c5.978271,0 10.350494,-0.222229 16.304382,0.54348c3.278839,0.42168 6.533936,0.887745 8.152161,1.086956c2.22403,0.273792 2.621613,0.807749 3.804352,1.086958c0.528961,0.124868 2.182068,0.410669 3.260895,0.54348c2.22403,0.27379 4.891296,0.543478 5.978271,0.543478c1.086945,0 1.463806,-0.24935 2.173889,-0.543478c0.502106,-0.207989 1.086975,0 1.086975,0.543478c0,0.543478 -0.33551,0.584848 -0.543488,1.086958c-0.294128,0.710093 -0.584869,0.878988 -1.086945,1.086958c-0.710083,0.294128 -1.006927,1.181034 -1.630432,1.630436c-0.98587,0.710588 -1.550415,1.181036 -2.17392,1.630436c-0.98587,0.710587 -1.713165,0.670994 -2.717407,1.086958c-0.710083,0.294128 -1.594635,1.165382 -2.717377,1.630436c-1.58783,0.657703 -2.621613,1.351227 -3.804352,1.630436c-0.528961,0.12487 -1.086975,0.54348 -2.17392,0.54348c-1.086975,0 -1.713165,0.127518 -2.717407,0.54348c-0.710083,0.294125 -1.630432,0.543476 -2.717377,0.543476c-2.17392,0 -3.260895,0 -4.891327,0c-1.086945,0 -1.630432,0 -2.717377,0c-0.543488,0 -1.630432,0 -2.17392,0c-1.086975,0 -2.17392,-0.543476 -3.260864,-0.543476c-1.086975,0 -2.17392,-0.000004 -3.804352,-0.54348c-1.630463,-0.543484 -2.80014,-0.127529 -3.804352,-0.54348c-0.710083,-0.294128 -1.644989,-0.418621 -2.17392,-0.54348c-1.18277,-0.279205 -2.203003,-0.837219 -3.260895,-1.086956c-1.182739,-0.279209 -2.173889,-1.086956 -3.260864,-1.086956c-1.086945,0 -1.463837,-0.249352 -2.17392,-0.54348c-0.502075,-0.20797 -1.086945,0 -1.630432,0c-1.08696,0 -2.173904,0 -4.347824,0c-1.630432,0 -2.078125,-0.264271 -3.26088,-0.54348c-1.057861,-0.249729 -1.630432,0 -2.173904,0c-0.543488,0 -1.08696,0 -1.630447,0c-0.543472,0 -0.543472,0.543484 -1.086945,1.08696c-0.543488,0.54348 -1.336319,0.376862 -1.630447,1.086956c-0.207977,0.50211 0.384293,1.246136 0,1.630436c-0.384293,0.384293 -0.792831,0.376865 -1.08696,1.08696c-0.207977,0.502106 -0.376373,0.644573 -1.086945,1.630436c-0.449417,0.62352 -0.543488,1.08696 -1.08696,1.630436c-0.543488,0.54348 -1.336319,0.920341 -1.630447,1.630436c-0.207977,0.50211 -1.086945,1.086952 -1.630432,1.630436c-0.543472,0.543476 -1.188049,1.463341 -2.17392,2.173916c-0.623505,0.449402 -1.630432,1.08696 -2.173904,1.630436c-0.543488,0.543484 -0.771133,1.314598 -1.630447,2.173916c-0.859314,0.859314 -0.919861,1.731522 -1.630432,2.717392c-0.449402,0.623512 -1.535019,1.683636 -2.17392,2.717396c-0.571442,0.924622 -0.376373,1.731529 -1.086945,2.717392c-0.449417,0.62352 -1.336319,1.463821 -1.630447,2.173916c-0.207977,0.50211 -1.336304,1.463821 -1.630432,2.173916c-0.41597,1.004215 -1.351227,2.078129 -1.630432,3.260876c-0.124863,0.528931 -0.731628,1.470367 -1.630432,2.717392c-0.710571,0.985863 -1.275101,2.55732 -2.17392,3.804352c-1.421143,1.971733 -1.463348,3.905441 -2.17392,4.891304c-1.348221,1.870544 -2.603165,4.390465 -3.260864,5.978271c-0.465057,1.122749 -1.752289,2.664581 -2.17392,3.804352c-0.777435,2.101631 -1.315445,3.30751 -1.630432,4.347832c-0.567841,1.875458 -1.418839,3.890907 -2.17392,5.434784c-0.860931,1.760292 -2.173904,4.347832 -2.717392,5.434792c-0.543488,1.08696 -0.621902,2.138123 -1.08696,3.260872c-0.657684,1.587807 -1.165375,2.138123 -1.630432,3.260872c-0.657684,1.587807 -1.08696,2.717392 -1.630447,3.804352c-0.543472,1.086952 -0.822281,1.953255 -1.630432,3.260872c-0.903534,1.461952 -1.086945,2.717392 -1.630432,4.347832c-0.543472,1.630432 -1.894699,3.165077 -2.17392,4.347824c-0.124863,0.528938 -0.792831,0.920341 -1.08696,1.63044c-0.207977,0.502106 -0.335495,1.128334 -0.543472,1.63044c-0.294128,0.710091 -1.08696,1.086952 -1.08696,1.63044c0,0.543472 0,1.086945 0,1.630432c0,0.543472 0.15918,0.702667 0.543472,1.08696c0.384293,0.384293 0.543488,0.543472 1.08696,0.543472c0.543488,0 1.08696,0 1.630447,0c0.543472,0 1.659515,0.249725 2.717392,0c1.182739,-0.279205 2.173904,-0.543472 3.260864,-1.08696c1.08696,-0.543472 1.630447,-0.543472 2.717392,-0.543472c1.08696,0 1.630447,0 2.717392,0c0.543488,0 1.08696,0 2.17392,0c1.630432,0 2.007309,0.249344 2.717392,0.543472c0.502121,0.207977 1.128326,-0.207993 1.630447,0c0.710083,0.294128 0.920334,0.792831 1.630432,1.08696c0.502106,0.207977 1.08696,0.543488 2.17392,0.543488c0.543472,0 1.580322,0.813156 3.804352,1.086945c1.61821,0.199203 2.717392,0.543488 4.347824,1.08696c1.630432,0.543488 2.761002,0.1689 4.347824,0.543488c1.182739,0.279205 2.10791,0.811661 3.804352,1.08696c1.60939,0.261169 3.804352,0 5.978271,0c1.630432,0 3.274918,-0.174103 4.347824,0c1.696442,0.275284 2.717407,0.543472 3.804352,0.543472c0.543488,0 1.630447,0 2.17392,0c1.08696,0 2.17392,0 3.26088,0c1.08696,0 2.007294,-0.249344 2.717392,-0.543472c1.004227,-0.415955 1.671799,0.207977 2.173904,0c0.710098,-0.294128 0.920364,-0.792831 1.630447,-1.08696c0.502106,-0.207977 0.861847,0.225098 1.630432,-0.543488c0.384308,-0.384293 0.33551,-0.584839 0.543488,-1.08696c0.294128,-0.710068 0.543457,-1.086945 0.543457,-1.630432c0,-0.543472 0,-1.08696 0,-1.630432c0,-0.543488 0,-1.08696 0,-1.630432c0,-0.543488 -0.249329,-0.920364 -0.543457,-1.63044c-0.207977,-0.502113 -0.962128,-1.644974 -1.086975,-2.17392c-0.279205,-1.182739 -0.543457,-1.630432 -0.543457,-2.717392c0,-0.54348 -0.15918,-0.70266 -0.543488,-1.08696c-0.384308,-0.3843 -1.246155,-0.384293 -1.630447,0c-0.384293,0.3843 -1.470352,1.275108 -2.717392,2.17392c-0.985855,0.710564 -2.274994,0.919861 -3.260864,1.630432c-0.62352,0.449409 -1.659515,0.837227 -2.717392,1.08696c-1.182755,0.279205 -2.17392,1.08696 -2.717392,1.08696c-0.543488,0 -1.169693,0.415955 -2.17392,0c-0.710098,-0.294128 -2.044067,-0.769508 -3.804352,-1.63044c-1.543869,-0.755081 -3.559326,-2.149551 -5.434784,-2.717392c-1.560486,-0.472481 -3.290298,-0.778633 -4.891312,-1.08696c-2.873917,-0.553467 -5.434784,-1.63044 -7.608704,-1.63044c-2.17392,0 -3.804352,0 -4.891312,0c-1.08696,0 -2.17392,0 -3.804352,0c-2.17392,0 -3.303513,-0.114212 -4.891312,0.54348c-1.122757,0.465057 -2.102341,0.700325 -4.347824,1.63044c-1.587799,0.657692 -2.621613,1.351227 -3.804352,1.630432c-0.528946,0.124863 -1.08696,0 -1.08696,-0.543472c0,-0.54348 -0.384293,-1.24614 0,-1.63044c0.384293,-0.384293 1.08696,0 1.630432,0c0.543488,0 1.249298,-0.027969 2.17392,0.54348c1.033752,0.638901 1.594635,1.708855 2.717392,2.173912c1.587799,0.657692 2.607071,1.226364 3.26088,1.63044c1.46196,0.903534 2.679871,0.672684 4.347824,1.08696c3.208374,0.796883 5.451065,0.821335 7.608704,1.086952c2.224045,0.273796 4.347824,0.543488 5.434784,0.543488c1.630432,0 2.717392,0.543472 4.347839,0.543472c1.630432,0 3.260864,0 4.891296,0c2.17392,0 3.194885,-0.268188 4.891312,-0.543472c2.145844,-0.348221 3.210754,-0.269691 5.434799,-0.543488c2.157623,-0.265617 4.347824,0 5.434784,0c2.17392,0 4.347824,0 5.978256,0c2.173935,0 2.717392,0 3.26088,0c0.543488,0 1.789612,-0.3843 2.17392,0c0.384308,0.384308 0.558014,0.962097 1.086945,1.08696c1.18277,0.279205 1.677063,0.228485 2.717407,0.543472c1.875458,0.567841 2.731415,0.912842 3.804352,1.08696c1.696442,0.275299 2.621582,0.807755 3.804352,1.08696c2.115753,0.499451 3.260864,0 4.891296,0c1.086975,0 2.717407,0 3.804352,0c1.630432,0 2.717407,0 4.347839,0c1.630432,0 3.260864,0 4.347839,0c2.173889,0 3.260864,0 5.978241,0c1.086975,0 2.217529,0.374588 3.804352,0c1.18277,-0.279205 1.789612,-1.24614 2.17392,-1.630432c0.768616,-0.7686 2.621613,-0.264267 3.804352,-0.543488c1.057892,-0.249741 2.17392,0 3.260895,0c0.543457,0 1.463806,-0.249344 2.173889,-0.543472c0.502106,-0.207993 1.630463,-0.543472 2.717407,-0.543472c1.086945,0 1.630432,0 3.260864,0c0.543488,0 1.086975,0 2.17392,0c1.086975,0 2.17392,0 3.260864,0c1.630463,0 2.17392,0 3.260895,0c0.543457,0 1.630432,0 2.717377,0c1.086975,0 2.717407,0 4.347839,0c0.543488,0 1.086945,0 1.630432,0c0.543488,0 0.751465,0.584839 0.543488,1.086945c-0.294128,0.710098 -0.543488,1.08696 -1.086975,1.630447c-0.543457,0.543472 -1.550385,1.18103 -2.173889,1.630432c-0.98587,0.710587 -1.671844,0.878983 -2.17392,1.08696c-1.420197,0.588257 -1.385406,1.606079 -3.260895,2.17392c-0.520142,0.157486 -1.051147,0.621887 -2.173889,1.086945c-1.58783,0.6577 -2.550781,1.336319 -3.260895,1.630447c-1.004211,0.415955 -1.630432,0.543457 -2.17392,1.086945c-0.543457,0.543472 -1.594635,1.16539 -2.717377,1.630447c-1.587799,0.6577 -2.260498,0.875351 -3.804352,1.630432c-1.760284,0.860931 -2.717407,1.630447 -3.804352,2.17392c-1.086975,0.543488 -2.188446,0.962097 -2.717407,1.08696c-1.182739,0.279205 -1.671814,0.878952 -2.17392,1.086945c-0.710083,0.294128 -1.036041,0.599686 -1.630432,1.08696c-1.515411,1.24231 -2.717377,1.08696 -3.260864,1.630447c-0.543488,0.543472 -1.731537,0.919846 -2.717407,1.630432c-1.247009,0.898804 -2.666473,1.68663 -3.260864,2.17392c-1.515381,1.24231 -2.803925,1.962311 -4.347809,2.717392c-1.760315,0.860931 -1.960022,1.385315 -4.891327,3.260864c-1.023651,0.654968 -2.557312,1.818588 -3.804352,2.717392c-0.98587,0.710571 -1.858063,1.314621 -2.717377,2.17392c-0.859314,0.859314 -0.712402,1.921158 -1.630463,2.717392c-1.29834,1.126053 -2.61557,1.742828 -3.804352,2.717392c-1.515411,1.242325 -2.173889,2.17392 -2.717377,2.717392c-0.543488,0.543488 -1.086975,1.086975 -1.630432,1.630447c-0.543488,0.543488 -1.168152,1.344727 -1.630432,1.630432c-1.033752,0.638901 -1.630463,1.630447 -2.17392,2.17392c-0.543488,0.543488 -1.086975,1.08696 -1.630432,1.630432c-0.543488,0.543488 -1.18808,0.919861 -2.17392,1.630432c-0.623535,0.449417 -1.630432,1.630447 -2.717407,2.17392c-1.08696,0.543472 -2.274994,0.919861 -3.260864,1.630432c-0.623535,0.449417 -0.991165,1.351227 -2.17392,1.630447c-0.528931,0.124863 -0.702667,0.702652 -1.08696,1.086945c-0.384293,0.384293 -0.920349,0.249359 -1.630432,0.543488c-0.502106,0.207977 -1.630432,0.543472 -2.17392,1.08696c-0.543472,0.543472 -1.188049,0.376373 -2.173904,1.086945c-0.62352,0.449417 -0.920349,1.336319 -1.630447,1.630447c-0.502106,0.207977 -2.274994,0.919861 -3.260864,1.630432c-1.24704,0.898804 -2.26799,2.093887 -2.717392,2.717392c-0.710571,0.98587 -1.5504,1.724518 -2.17392,2.17392c-0.98587,0.710571 -1.731522,0.919861 -2.717392,1.630432c-0.623535,0.449417 -1.08696,1.086945 -1.630447,1.630432c-0.543488,0.543488 -1.246124,0.702652 -1.630432,1.08696c-0.384308,0.384308 -0.543472,0.543488 -0.543472,1.08696c0,0.543488 -0.702667,0.159195 -1.08696,0.543488c-0.384293,0.384293 -0.257767,0.624634 -0.543488,1.086945c-0.638885,1.033752 -1.463821,1.336319 -2.173904,1.630447c-0.502121,0.207993 -0.584854,0.335495 -1.08696,0.543472c-0.710083,0.294128 -0.584839,0.878983 -1.08696,1.08696c-0.710083,0.294128 -0.920349,0.792831 -1.630432,1.08696c-0.502121,0.207993 -0.376877,0.792831 -1.08696,1.08696c-0.502106,0.207977 -0.920349,0.249344 -1.630432,0.543472c-0.502121,0.207977 -0.920349,0.249359 -1.630447,0.543488c-0.502106,0.207977 -0.702652,0.702652 -1.086945,1.086945c-0.7686,0.7686 -1.24614,0.15918 -1.630447,0.543488c-0.384293,0.384293 -1.08696,0.543472 -1.630432,0.543472c-0.543472,0 -0.702652,0.15918 -1.08696,0.543488c-0.384293,0.384293 -0.376862,0.792816 -1.08696,1.086945c-0.502106,0.207977 -0.702652,0.15918 -1.08696,0.543488c-0.384293,0.384293 -0.920334,0.792831 -1.630432,1.08696c-0.502106,0.207977 -1.18103,0.46344 -1.630432,1.08696c-0.710571,0.985855 -0.702652,1.246124 -1.08696,1.630432c-0.384293,0.384293 -0.702667,0.15918 -1.08696,0.543472c-0.384293,0.384293 -1.294937,-0.041367 -1.08696,-0.543472c0.294128,-0.710098 0.919876,-1.188049 1.630447,-2.17392c0.449402,-0.623505 0.919861,-1.188049 1.630432,-2.17392c0.449402,-0.623505 0.861832,-0.318344 1.630432,-1.086945c0.7686,-0.7686 0.543488,-1.630447 1.630432,-2.717392c0.543488,-0.543488 1.08696,-1.08696 1.630447,-1.630447c1.08696,-1.08696 1.422455,-1.671799 1.630432,-2.173904c0.294128,-0.710098 1.505569,-1.101501 1.630432,-1.630447c0.279221,-1.182755 0.919876,-1.188049 1.630447,-2.173904c0.449402,-0.62352 1.086945,-1.630432 1.630432,-2.17392c0.543488,-0.543488 1.08696,-1.630432 2.17392,-2.717392c1.086945,-1.08696 1.630432,-2.17392 2.717392,-3.26088c0.543472,-0.543472 1.08696,-1.08696 1.630432,-1.630432c0.543472,-0.543488 0.771118,-1.314606 1.630432,-2.17392c0.859314,-0.859314 1.724503,-1.5504 2.17392,-2.17392c0.710571,-0.985855 1.879791,-2.007294 2.17392,-2.717392c0.415955,-1.004211 1.086945,-1.630432 1.630432,-2.717392c0.543472,-1.08696 1.18103,-1.5504 1.630432,-2.173904c0.710571,-0.98587 1.336304,-2.007309 1.630432,-2.717407c0.207977,-0.502106 0.33551,-1.128311 0.543488,-1.630432c0.294128,-0.710083 0.584839,-0.878983 1.08696,-1.08696c0.710083,-0.294128 0.543488,-1.08696 1.08696,-2.173904c0.543488,-1.08696 0.991531,-1.140167 1.630432,-2.17392c0.285736,-0.462311 0.15918,-1.24614 0.543472,-1.630432c0.384308,-0.384308 0.543488,-0.543488 1.630447,-1.630447c0.543472,-0.543472 0.972748,-1.673065 1.630432,-3.260864c0.465057,-1.122742 1.08696,-2.17392 1.630432,-3.26088c0.543488,-1.08696 0.543472,-1.630447 1.630432,-2.717392c0.543488,-0.543472 0.792831,-1.463821 1.08696,-2.17392c0.207977,-0.502106 0.543488,-1.630432 1.08696,-2.717392c0.543488,-1.08696 0.543488,-1.630432 1.08696,-2.173904c0.543472,-0.543488 0.878983,-1.671814 1.08696,-2.17392c0.294128,-0.710098 0.962097,-1.101501 1.08696,-1.630432c0.279205,-1.182739 0.726898,-1.798935 1.630432,-3.26088c0.404068,-0.653793 0.919861,-1.731522 1.630432,-2.717392c0.449417,-0.623535 1.042175,-0.753754 1.630432,-2.17392c0.207977,-0.502106 0.376862,-1.879791 1.08696,-2.17392c1.004242,-0.41597 1.550415,-0.637543 2.17392,-1.086945c0.98587,-0.710571 1.630432,-0.543488 2.717407,-0.543488c0.543457,0 2.173889,0 3.260864,0c1.086945,0 2.717377,0 4.347839,0c2.173889,0 3.804352,0 7.065216,0c2.17392,0 3.804352,0 4.891296,0c1.086975,0 2.17392,0 3.260895,0c2.173889,0 3.804352,0 5.434784,0c2.173889,0 3.260864,-0.543472 4.891296,-0.543472c1.086945,0 2.187958,-0.369385 3.260864,-0.543488c1.696442,-0.275284 2.717407,-0.543472 4.891327,-0.543472c1.086945,0 3.094269,-0.249344 3.804352,-0.543472c1.506317,-0.623932 3.304474,-0.168884 4.891296,-0.543488c2.365509,-0.558411 2.818512,-0.919861 3.804352,-1.630432c0.623535,-0.449417 1.086975,-1.08696 1.630432,-1.630432c0.543488,-0.543488 1.336304,-0.376892 1.630432,-1.08696c0.207977,-0.502121 -0.041382,-0.207962 -0.543457,0c-0.710083,0.294128 -1.246155,0.702682 -1.630432,1.08696c-0.384308,0.384293 -0.644592,0.919846 -1.630463,1.630432c-0.623505,0.449402 -1.731506,0.919876 -2.717377,1.630432c-1.24704,0.898819 -2.138123,1.708862 -3.260864,2.17392c-1.58783,0.6577 -2.078125,1.894699 -3.260895,2.173904c-0.528931,0.124863 -1.630432,1.08696 -3.260864,1.630447c-1.630432,0.543472 -3.303497,1.51622 -4.891296,2.173904c-1.122772,0.465057 -2.260468,0.875366 -3.804352,1.630447c-1.760315,0.860931 -2.496765,1.365768 -3.804352,2.173904c-1.461945,0.903534 -2.555725,1.393234 -5.434784,2.717407c-1.561432,0.718155 -3.260895,2.173904 -4.891327,3.260864c-1.630432,1.08696 -3.804352,2.17392 -5.434784,3.26088c-1.630432,1.08696 -2.717407,2.173904 -4.347839,3.260864c-1.630432,1.08696 -2.936951,1.854111 -5.434784,3.804352c-1.817444,1.419006 -3.291656,2.672577 -4.891296,3.804352c-2.218323,1.569489 -3.260895,2.717392 -3.804367,3.26088c-0.543472,0.543472 -1.086945,1.08696 -1.630432,1.630432c-1.08696,1.086945 -2.173904,1.630432 -3.260864,2.717392c-0.543488,0.543488 -1.5504,1.724518 -2.17392,2.17392c-0.98587,0.710571 -2.173904,1.630432 -2.717392,2.17392c-0.543488,0.543488 -1.08696,0.543472 -2.17392,1.630432c-0.543472,0.543472 -1.188049,0.919861 -2.17392,1.630432c-0.62352,0.449402 -1.086945,1.086945 -1.630432,1.630432c-0.543488,0.543488 -1.630432,1.08696 -2.17392,1.630447c-0.543472,0.543472 -1.671799,1.422455 -2.173904,1.630432c-0.710098,0.294128 -1.006927,1.18103 -1.630447,1.630432c-0.985855,0.710571 -1.140152,1.535019 -2.173904,2.17392c-0.924622,0.571457 -0.861847,0.861832 -1.630447,1.630432c-0.384293,0.384293 -0.543472,0.543488 -0.543472,0c0,-0.543472 0.498703,-1.840698 1.08696,-3.260864c0.623947,-1.506332 1.51622,-3.846985 2.17392,-5.434799c0.930115,-2.245483 2.312149,-4.250717 3.804352,-6.521744c2.406097,-3.661911 3.804352,-5.434784 4.891296,-7.065216c1.08696,-1.630447 2.905548,-3.100815 3.804352,-4.347839c1.421143,-1.971725 2.717407,-3.804352 3.804352,-5.434784c1.08696,-1.630432 2.456131,-3.020752 3.804352,-4.891312c1.421143,-1.971725 2.614929,-3.877533 3.804352,-5.434784c1.043213,-1.365799 1.630432,-2.717392 2.17392,-3.804352c0.543488,-1.08696 1.630432,-2.17392 2.17392,-2.717392c1.086945,-1.086945 1.731506,-1.463348 2.717377,-2.17392c1.24704,-0.898819 1.463837,-1.336304 2.17392,-1.630432c0.502106,-0.207993 1.086975,0 2.17392,0c0.543488,0 1.630432,0 3.260864,0c1.086975,0 2.717407,0 4.891327,0.543472c2.17392,0.543488 2.472351,1.606079 4.347839,2.17392c1.560486,0.472473 2.550781,0.249344 3.260864,0.543472c0.502106,0.207977 0.543488,0.543488 0.543488,1.08696c0,0.543488 -0.014526,0.962097 -0.543488,1.08696c-1.18277,0.279221 -1.713165,1.214447 -2.717407,1.630432c-0.710083,0.294128 -1.659515,1.380722 -2.717377,1.630447c-1.18277,0.279205 -1.699463,1.45575 -3.260895,2.173904c-2.879059,1.324173 -4.283417,2.820816 -5.978241,3.804352c-2.102173,1.21994 -3.651642,2.885986 -5.434814,4.347839c-1.515411,1.242325 -2.856781,2.063583 -3.260864,2.717392c-0.903564,1.461945 -1.630432,2.173904 -2.17392,3.260864c-0.543488,1.08696 -1.086945,1.630447 -1.630432,2.717407c-0.543488,1.086945 -2.129135,1.840683 -2.717392,3.260864c-0.207977,0.502121 -0.376862,1.879791 -1.08696,2.17392c-1.004211,0.415955 -1.086945,0.543472 -1.630432,0.543472c-0.543472,0 -0.543472,-0.543472 -0.543472,-1.630432c0,-1.630432 0.543472,-3.804352 2.173904,-6.521744c1.630447,-2.717392 3.127899,-5.506516 4.347839,-7.608704c0.983551,-1.694809 2.17392,-3.26088 3.804352,-4.891312c1.086945,-1.08696 1.818573,-2.557327 2.717377,-3.804352c0.710571,-0.98587 1.630463,-2.17392 2.17392,-3.260864c0.543488,-1.08696 1.086975,-2.173935 1.630432,-2.717407c0.543488,-0.543488 1.336334,-0.920334 1.630463,-1.630432c0.207977,-0.502106 0.543457,-1.08696 1.086945,-1.630432c0.543488,-0.543488 1.246124,-0.702652 1.630432,-1.08696c0.384308,-0.384293 0.644562,-0.710556 1.630432,0c0.623535,0.449402 0.637573,1.006912 1.086975,1.630432c0.710571,0.985855 0.912842,2.73143 1.086945,3.804352c0.275299,1.696457 0.543488,3.26088 0.543488,5.978271c0,2.17392 0.261169,5.455841 0,7.065231c-0.275299,1.696442 -1.246155,2.558182 -1.630432,2.173904c-0.384308,-0.384293 0,-1.630432 0,-2.717392c0,-1.08696 -0.114227,-2.216553 0.543457,-3.804352c0.465057,-1.122757 0.957123,-2.399948 2.717407,-3.260864c1.543884,-0.755081 2.10791,-0.811676 3.804352,-1.08696c2.682312,-0.435272 3.804352,-0.543488 5.434784,-0.543488c1.630432,0 3.804352,0 5.978271,-0.543472c2.17392,-0.543488 4.571777,-0.526398 6.521729,-1.630432c0.668854,-0.378693 1.471283,-0.384308 1.086975,0c-0.384308,0.384308 -1.18103,0.46344 -1.630432,1.086945c-0.710571,0.98587 -1.677063,1.31546 -2.717407,1.630447c-1.875458,0.567841 -3.194855,1.355148 -4.891296,1.630432c-0.536469,0.087051 -1.086975,0 -1.630432,0c-0.543488,0 -0.543488,-0.543488 -1.630432,-1.08696c-1.086975,-0.543488 -1.566071,-1.733841 -3.260895,-2.717392c-1.051086,-0.60997 -2.12912,-1.297226 -2.717377,-2.717392c-0.207977,-0.502121 -0.644562,-0.919876 -1.630432,-1.630432c-1.24704,-0.898819 -2.209778,-2.107437 -3.260895,-2.717407c-1.694824,-0.983536 -3.260864,-2.173904 -5.434784,-3.260864c-2.17392,-1.08696 -5.19458,-1.12915 -8.152191,-3.26088c-1.247009,-0.898804 -2.173889,-1.630432 -2.717377,-2.173904c-0.543488,-0.543488 -1.214478,-1.169708 -1.630432,-2.17392c-0.294128,-0.710083 -1.422455,-1.671806 -1.630432,-2.173912c-0.294128,-0.710098 -0.792847,-1.463821 -1.086975,-2.17392c-0.415955,-1.004219 -0.264282,-2.078117 -0.543488,-3.260872c-0.249741,-1.057884 -0.264267,-2.078125 -0.543472,-3.260872c-0.249725,-1.057884 0,-1.63044 0,-2.717392c0,-0.54348 0,-1.08696 0,-2.7174c0,-1.086952 0,-1.630432 0,-2.717392c0,-0.54348 0,-1.08696 0.543472,-1.630432c0.543488,-0.54348 0.702667,-0.70266 1.086975,-1.08696c0.384308,-0.3843 0.46344,-0.637558 1.086945,-1.08696c0.98587,-0.710587 1.671814,-0.878983 2.17392,-1.08696c0.710083,-0.294121 0.920349,-0.792824 1.630432,-1.086952c0.502106,-0.207993 0.15918,-0.70266 0.543488,-1.08696c0.768585,-0.768585 1.297211,-1.042183 2.717407,-1.630432c0.502075,-0.20797 1.630432,-0.543488 2.173889,-1.08696c1.086945,-1.086975 2.342407,-1.813866 3.804352,-2.717392c1.307617,-0.808151 1.630463,-1.086967 2.717407,-2.17392c0.543488,-0.543488 1.422455,-2.215286 1.630432,-2.717392c0.294128,-0.710098 1.724518,-1.5504 2.17392,-2.173912c0.710571,-0.985863 1.351227,-1.534645 1.630432,-2.7174c0.124878,-0.528938 0.543488,-1.086945 1.086975,-1.630432c0.543457,-0.543472 1.18103,-1.550392 1.630432,-2.17392c0.710571,-0.985855 0.376373,-1.731522 1.086945,-2.717392c0.449402,-0.62352 0.991547,-0.596687 1.630432,-1.630432c0.571442,-0.924622 0.127533,-1.713181 0.543488,-2.7174c0.294128,-0.710098 1.336304,-0.920334 1.630432,-1.630432c0.415955,-1.004219 0.33551,-1.671814 0.543488,-2.17392c0.294128,-0.710098 0.991547,-0.59668 1.630432,-1.630432c0.571442,-0.924622 0.771118,-1.858093 1.630432,-2.7174c0.859314,-0.859314 0.93158,-1.745468 2.17392,-3.260872c0.974548,-1.188759 1.630432,-2.17392 2.717377,-3.804348c1.086975,-1.630444 1.795258,-3.135529 2.17392,-3.804352c1.104034,-1.949974 1.69339,-3.784695 2.17392,-5.434788c0.626526,-2.151459 0.954163,-4.899452 1.086975,-5.978268c0.273773,-2.22403 0.543457,-3.260872 0.543457,-4.347828c0,-0.54348 0.384308,-1.24614 0,-1.63044c-0.384277,-0.384281 -0.962067,0.014538 -1.086945,0.54348c-0.279205,1.182751 -1.606079,1.385418 -2.17392,3.260872c-0.314972,1.040321 -1.147919,2.672985 -2.717407,4.891312c-1.131775,1.599644 -1.475067,3.375919 -2.717377,4.891308c-0.974579,1.188782 -1.463348,2.818485 -2.17392,3.804352c-0.898804,1.247025 -2.006805,2.818489 -2.717377,3.804352c-0.898804,1.247047 -1.439636,2.280315 -2.717407,4.347828c-1.428619,2.311562 -2.91922,4.21019 -4.347839,6.521744c-1.277802,2.06752 -2.928802,4.704323 -4.347809,6.521751c-1.950256,2.497826 -2.717407,4.891312 -3.804352,6.521744c-1.086975,1.63044 -2.31488,3.67968 -3.260895,4.891312c-1.950256,2.49781 -1.613342,4.571777 -2.717377,6.521744c-1.136047,2.006493 -2.399963,3.674492 -3.260895,5.434784c-0.755066,1.543869 -1.199341,3.159065 -2.173889,4.347832c-1.24234,1.515404 -1.505615,2.188446 -1.630463,2.717392c-0.279205,1.182739 -1.351227,1.534645 -1.630432,2.7174c-0.124878,0.528931 -0.792816,0.920334 -1.086945,1.630432c-0.415955,1.004219 -0.83725,1.659515 -1.086975,2.717392c-0.279205,1.182747 -1.344696,1.711609 -1.630417,2.17392c-0.638901,1.03376 -0.920349,1.336304 -1.630447,1.630432c-0.502106,0.207977 -0.920334,0.792831 -1.630432,1.08696c-1.004227,0.415955 -1.594635,0.078423 -2.717392,0.54348c-1.587799,0.657692 -2.717392,0.54348 -4.891312,0.54348c-1.08696,0 -2.717392,0 -3.804352,0c-1.630432,0 -2.717392,0 -4.891312,0c-2.173904,0 -4.3172,-0.645844 -5.978256,-1.08696c-2.678391,-0.711288 -5.463882,-1.380714 -6.521744,-1.63044c-2.365494,-0.558411 -3.26088,-1.630432 -3.804352,-1.630432c-0.543488,0 -1.534653,-0.264275 -2.717407,-0.54348c-0.528931,-0.124863 -1.630432,0 -2.173904,0c-0.543488,0 -1.08696,-0.54348 -1.630447,-0.54348c-1.086945,0 -2.173904,0 -2.717392,0c-0.543472,0 -1.08696,0 -1.630432,0c-0.543472,0 -1.08696,0 -1.630432,0c-0.543488,0 -0.702667,-0.15918 -1.08696,-0.54348c-0.384308,-0.3843 -0.543488,-0.543472 -0.543488,-1.086952c0,-0.54348 0,-1.08696 0,-2.17392c0,-1.630432 0.07843,-2.681595 0.543488,-3.804352c0.657684,-1.587799 0.852982,-2.78968 1.630432,-4.891304c0.421631,-1.139778 0.972748,-2.760033 1.630432,-4.347832c0.465057,-1.122757 0.671005,-2.800133 1.08696,-3.804352c0.588257,-1.420181 1.08696,-2.717392 1.630447,-3.804352c0.543472,-1.08696 1.086945,-2.173912 1.630432,-3.260872c1.08696,-2.17392 1.51622,-3.303497 2.17392,-4.891312c0.465057,-1.122749 0.972733,-2.216537 1.630432,-3.804352c0.465057,-1.122742 1.020462,-2.209785 1.630432,-3.260872c0.983536,-1.694824 1.047867,-3.049484 2.17392,-4.347832c0.796234,-0.918068 1.630432,-2.717392 2.17392,-3.804352c0.543472,-1.086952 1.380707,-2.202988 1.630432,-3.260872c0.279205,-1.182739 1.724503,-2.09388 2.173904,-2.717392c0.710571,-0.98587 1.143158,-2.123005 1.630447,-2.717396c1.24234,-1.515392 1.630432,-2.173916 2.173904,-3.260872c0.543488,-1.08696 1.08696,-2.173912 1.630447,-3.260872c0.543472,-1.086952 1.08696,-1.63044 2.173904,-2.717392c1.08696,-1.086964 1.475082,-2.832432 2.717407,-4.347832c0.974548,-1.18877 1.463333,-2.275009 2.173904,-3.260872c0.449417,-0.62352 1.18103,-1.550392 1.630447,-2.173916c0.710571,-0.985867 1.31459,-2.401558 2.173904,-3.260872c0.859314,-0.859318 1.534653,-1.894707 2.717392,-2.173916c0.528946,-0.12487 1.08696,-0.54348 1.630447,-0.54348c0.543472,0 1.08696,0 1.630432,0c1.08696,0 2.681595,0.621902 3.804352,1.08696c1.587799,0.657688 3.303497,1.516216 4.891312,2.173912c1.122742,0.465054 2.203003,0.837234 3.260864,1.08696c1.18277,0.279205 2.12381,0.813164 4.347839,1.086956c2.157623,0.265617 4.347839,0.54348 6.521729,0.54348c2.717407,0 4.347839,0 6.521759,0c2.17392,0 4.347839,0 5.434784,0c2.17392,0 4.347839,0 6.521759,0c1.630432,0 3.16507,-0.264271 4.347809,-0.54348c1.057892,-0.249737 2.007324,-0.249352 2.717407,-0.54348c0.502106,-0.207981 1.246124,-0.92778 1.630432,-0.543476c0.384308,0.384296 0,1.086956 0,1.630436c0,0.54348 -0.543488,1.086956 -1.086945,1.086956c-0.543488,0 -0.543488,0.54348 -1.086975,0.54348c-0.543488,0 -0.543488,0.54348 -1.086945,0.54348c-0.543488,0 -0.584869,0.335487 -1.086975,0.543476c-0.710083,0.294132 -1.086945,0.54348 -1.630432,0.54348c-0.543488,0 -1.086945,0 -1.630432,0c-0.543488,0 -1.086945,0 -1.630432,0c-0.543488,0 -1.086945,0 -1.630432,0c-0.543488,0 -1.463837,-0.249352 -2.17392,-0.54348c-0.502106,-0.207981 -1.463837,-0.249352 -2.17392,-0.543476c-1.004211,-0.415951 -1.550385,-0.09407 -2.17392,-0.54348c-0.98587,-0.710564 -2.078125,-0.807751 -3.260864,-1.086956c-1.057861,-0.249729 -1.713165,-0.127502 -2.717407,-0.54348c-0.710083,-0.294132 -1.463806,-0.792828 -2.173889,-1.08696c-0.502106,-0.207989 -1.673096,0.114216 -3.260895,-0.543476c-1.122742,-0.465057 -3.16507,-0.807751 -4.347809,-1.08696c-1.057892,-0.249737 -2.717407,-0.543476 -3.804352,-0.543476c-1.630463,0 -3.194885,-0.268185 -4.891327,-0.54348c-0.536469,-0.087059 -2.173904,0 -3.260864,0c-1.08696,0 -2.717392,0 -3.804352,0c-0.543488,0 -0.991165,0.807751 -2.17392,1.086956c-0.528931,0.124863 -0.920349,0.792831 -1.630432,1.08696c-0.502121,0.207985 -1.535019,0.053196 -2.17392,1.086956c-0.285721,0.462311 -0.731613,0.926888 -1.630432,2.173916c-0.710571,0.985867 -1.08696,1.63044 -1.630432,2.173916c-0.543488,0.54348 -0.919876,1.188046 -1.630447,2.173916c-0.449402,0.623512 -1.505569,1.644974 -1.630432,2.173912c-0.279205,1.182747 -2.17392,3.26088 -2.717392,4.347832c-0.543488,1.08696 -0.826172,2.349823 -1.630432,3.260872c-1.296829,1.469032 -2.006836,3.361961 -2.717407,4.347832c-0.898804,1.247025 -1.708847,2.681606 -2.173904,3.804348c-0.6577,1.587814 -1.606079,1.928894 -2.17392,3.804352c-0.314987,1.040321 -0.929474,2.197243 -1.08696,2.7174c-0.567841,1.875458 -1.020462,2.753265 -1.630432,3.804352c-0.983536,1.694824 -1.312988,2.04406 -2.17392,3.804352c-0.755081,1.543869 -1.787277,3.732758 -2.717392,5.978264c-0.657684,1.587807 -1.924652,3.099281 -2.717392,4.891312c-0.906525,2.049263 -1.312988,3.674492 -2.17392,5.434784c-0.755081,1.543877 -1.08696,3.26088 -2.173904,4.891312c-1.08696,1.63044 -1.463348,3.905449 -2.17392,4.891304c-0.449417,0.62352 -1.08696,1.08696 -1.08696,2.17392c0,0.54348 -0.543472,1.086952 -0.543472,1.630432c0,0.54348 0,1.08696 0,2.17392c0,0.54348 0.15918,0.70266 0.543472,1.086952c0.384293,0.3843 0.792831,0.376862 1.08696,1.08696c0.207977,0.502106 0.991531,0.59668 1.630432,1.63044c0.285721,0.462311 0.861847,-0.225105 1.630432,0.54348c0.384293,0.384293 0.626236,0.12751 1.630447,0.543472c0.710083,0.294128 1.630432,0.54348 2.717392,0.54348c0.543472,0 1.630432,0 2.17392,0c1.086945,0 2.717392,0 3.804352,0c1.086945,0 3.804337,0 5.434784,0c1.08696,0 2.717392,0.54348 3.804352,0.54348c1.630432,0 3.260864,0 5.434784,0c1.08696,0 3.26088,0 4.347824,0c2.17392,0 3.732773,-0.156845 5.978271,-1.08696c1.587799,-0.657684 2.818481,-0.919861 3.804352,-1.630432c0.62352,-0.449409 1.08696,-1.08696 2.17392,-2.17392c0.543472,-0.543472 1.08696,-1.630432 1.630432,-2.717392c0.543472,-1.08696 1.270386,-2.88588 2.17392,-4.347832c0.404083,-0.653809 1.355133,-1.56443 1.630432,-3.260872c0.174103,-1.072914 0.293762,-2.202988 0.543488,-3.260872c0.279205,-1.182739 0.837219,-2.202988 1.086945,-3.260872c0.279205,-1.182755 1.062592,-1.928894 1.630432,-3.804352c0.314972,-1.040321 0.772003,-2.76403 1.086975,-3.804352c0.567841,-1.87545 1.733826,-3.196487 2.717377,-4.891312c1.21994,-2.10218 1.630432,-3.804337 2.717407,-5.978264c1.086945,-2.173904 2.539459,-3.64592 3.804352,-7.065224c0.777435,-2.101631 1.874115,-3.155251 2.717377,-5.434784c0.777435,-2.101639 1.296265,-4.550018 2.717407,-6.521748c1.348206,-1.870552 2.505798,-3.890919 3.260864,-5.434788c0.860931,-1.760296 1.351227,-2.621613 1.630432,-3.804352c0.124847,-0.528942 0.543488,-1.08696 0.543488,-1.630436c0,-0.54348 0,-1.08696 0,-1.63044c0,-0.543476 0,-1.086956 0,-1.630436c0,-0.543476 0.384308,-1.246136 0,-1.630436c-0.384308,-0.384304 -0.543488,-0.543476 -1.086945,-0.543476c-0.543488,0 -1.086975,-0.54348 -1.630432,-0.54348c-1.086975,0 -1.948822,0.768585 -2.717407,0c-0.384308,-0.3843 -1.630432,-0.54348 -4.891296,-0.54348c-2.717407,0 -4.891327,0 -7.608704,0c-1.086975,0 -3.260895,0 -4.347839,0c-1.086975,0 -2.717407,0 -3.804352,0c-1.086975,0 -2.17392,0 -3.26088,0.54348c-1.08696,0.54348 -1.630432,0.543484 -2.173904,1.086956c-0.543488,0.543484 -0.962097,0.558018 -1.08696,1.08696c-0.279221,1.182747 -0.878983,1.671806 -1.08696,2.173912c-0.588257,1.420181 -1.275116,2.013836 -2.17392,3.260876c-0.710571,0.985863 -0.637543,2.093872 -1.08696,2.717392c-0.710571,0.985863 -0.919861,2.275005 -1.630432,3.260872c-0.449402,0.623516 -1.08696,2.173916 -2.17392,3.260876c-1.08696,1.086956 -1.983063,2.823792 -3.260864,4.891308c-1.428619,2.311554 -3.216064,4.378616 -4.347839,5.978264c-1.569489,2.218315 -3.37326,4.246017 -4.347824,5.434792c-1.242325,1.515388 -1.813858,3.429359 -2.717392,4.891312c-0.808151,1.30761 -1.839737,2.376091 -3.26088,4.347824c-0.898819,1.247032 -1.724503,2.093887 -2.173904,2.7174c-0.710571,0.985863 -1.472961,2.197235 -1.630447,2.717392c-0.567841,1.875458 -2.252335,3.225075 -2.717392,4.347832c-0.657684,1.587799 -1.733841,3.19648 -2.717392,4.891304c-1.21994,2.102173 -1.894699,3.165077 -2.17392,4.347832c-0.249741,1.057884 -0.807739,1.534645 -1.08696,2.717392c-0.249741,1.057884 0.415955,1.713181 0,2.7174c-0.294128,0.710083 -1.312073,1.405312 -0.543472,2.173912c0.384293,0.384293 1.08696,0 1.630432,0c1.08696,0 2.17392,0 3.804352,0c1.630447,0 2.17392,0 3.26088,0c0.543472,0 1.630432,0 2.17392,0c1.086945,0 1.630432,0 2.717392,0c1.086945,0 2.173904,0 3.804352,0c1.086945,0 2.173904,-0.54348 2.717392,-0.54348c1.08696,0 1.630432,-0.54348 2.717392,-0.54348c0.543472,0 1.5504,-0.63755 2.17392,-1.086952c0.985855,-0.710564 1.297211,-1.042183 2.717392,-1.63044c0.502106,-0.207977 1.24614,-0.159187 1.630432,-0.54348c0.384293,-0.3843 0.702652,-0.15918 1.08696,-0.54348c0.384293,-0.3843 0,-1.086952 1.08696,-1.086952c0.543472,0 0.543472,-0.54348 1.08696,-0.54348c0.543472,0 1.246124,-0.15918 1.630432,-0.54348c0.384293,-0.3843 0.543472,-0.54348 1.08696,-0.54348c0.543472,0 0.702652,-0.92778 1.08696,-0.54348c0.384293,0.3843 0,1.08696 0,2.17392c0,0.543472 0.374603,2.761009 0,4.347824c-0.279221,1.182755 -1.08696,2.17392 -1.08696,2.7174c0,0.54348 -0.543488,0.54348 -0.543488,1.086952c0,0.54348 -0.15918,0.70266 -0.543472,1.08696c-0.384308,0.3843 -0.702667,0.15918 -1.08696,0.54348c-0.384293,0.384293 -1.08696,0 -1.630432,0c-0.543488,0 -1.226364,-0.976631 -1.630447,-1.63044c-0.903534,-1.461945 -0.543472,-2.717392 -0.543472,-3.804352c0,-0.543472 -0.415955,-1.713173 0,-2.717392c0.588257,-1.420181 1.630432,-2.717392 2.717392,-4.347832c1.08696,-1.630432 2.17392,-2.717392 3.26088,-4.347824c1.08696,-1.63044 1.463333,-2.818489 2.173904,-3.804352c0.898804,-1.24704 1.270386,-1.79892 2.17392,-3.260872c0.808151,-1.307617 1.708862,-2.138123 2.17392,-3.26088c0.657684,-1.587799 1.818573,-2.557327 2.717377,-3.804352c0.710571,-0.985863 0.388153,-2.288933 1.630463,-3.804344c0.487274,-0.594376 1.086945,-1.630447 2.173889,-3.804352c0.543488,-1.08696 1.270386,-2.885887 2.17392,-4.347832c0.808167,-1.307625 1.516205,-2.760025 2.17392,-4.347832c0.465057,-1.122749 1.31543,-2.220551 1.630432,-3.260872c0.567841,-1.875469 1.630432,-2.717396 2.717407,-4.891312c0.543488,-1.086956 1.606079,-1.928883 2.17392,-3.804352c0.314972,-1.040318 0.962067,-2.18845 1.086945,-2.717392c0.279205,-1.182747 1.336304,-1.463837 1.630432,-2.173916c0.415955,-1.004219 0.227661,-1.858074 1.086975,-2.717392c0.859314,-0.859306 0.920349,-1.879791 1.630432,-2.173916c0.502106,-0.207981 0.543488,-0.54348 0.543488,0c0,0.543476 0.499481,2.232071 0,4.347828c-0.558441,2.365498 -1.967529,4.167892 -2.717407,5.978268c-1.060486,2.560268 -1.396484,4.420113 -2.17392,6.521748c-0.843262,2.279537 -1.999237,4.416874 -2.717377,5.978268c-1.324188,2.879089 -1.826996,3.426849 -3.260895,5.978264c-1.331329,2.368919 -2.463226,3.91246 -3.260864,5.434792c-1.261169,2.407005 -2.362061,3.644279 -3.260864,4.891304c-1.421143,1.971741 -1.754364,3.411469 -2.717407,5.434792c-1.167862,2.453629 -3.105499,5.006348 -4.347824,6.521744c-1.461838,1.783157 -2.905548,3.100792 -3.804352,4.347832c-0.710571,0.985863 -1.630432,2.173912 -2.717392,2.717392c-1.08696,0.54348 -1.630432,1.08696 -2.717392,1.630432c-1.08696,0.54348 -2.651382,1.355148 -4.347839,1.63044c-1.072922,0.17411 -3.260864,0.54348 -4.891312,0.54348c-2.173904,0 -3.804352,0 -4.891296,0c-1.08696,0 -2.17392,0 -3.804352,0c-0.543488,0 -2.17392,0 -2.717392,0c-0.543488,0 -1.08696,0 -1.630447,0c-0.543472,0 -0.335495,-0.584854 -0.543472,-1.08696c-0.294128,-0.710098 -0.543488,-1.08696 -0.543488,-1.630432c0,-0.54348 0,-1.08696 0,-1.63044c0,-0.54348 0.127533,-1.713173 0.543488,-2.717392c0.588257,-1.420181 2.349823,-2.456619 3.260864,-3.260872c1.469025,-1.296837 1.839737,-2.919579 3.26088,-4.891312c0.898819,-1.247032 1.875259,-2.418747 3.260864,-3.804352c1.385605,-1.385612 2.717407,-2.717392 3.26088,-3.804352c0.543472,-1.08696 1.08696,-1.630424 2.17392,-2.717392c0.543472,-0.54348 1.190369,-1.566055 2.173904,-3.260872c0.60997,-1.051094 1.733871,-2.653 2.717407,-4.347832c0.60997,-1.051086 1.312973,-2.044067 2.173904,-3.804352c0.755096,-1.543877 1.585663,-2.384171 2.17392,-3.804352c0.623932,-1.506325 0.999908,-3.267891 1.08696,-3.804352c0.275284,-1.696438 1.08696,-2.717396 1.630432,-3.804352c0.543488,-1.08696 0.919861,-2.275005 1.630432,-3.260872c0.449417,-0.623524 0.637558,-1.550404 1.08696,-2.173916c0.710571,-0.98587 0.919876,-2.275002 1.630447,-3.260872c0.449402,-0.623512 1.086945,-1.630432 1.630432,-2.717392c0.543472,-1.086956 0.920349,-1.879787 1.630432,-2.173916c0.502106,-0.207977 1.246124,-0.384304 1.630432,0c0.384308,0.384296 0.33551,1.128326 0.543488,1.630436c0.294128,0.710094 1.086945,0.54348 1.086945,1.630436c0,0.54348 0,1.086956 0,1.630436c0,0.54348 0,1.08696 0,1.630436c0,0.54348 0,1.08696 0,1.630436c0,0.54348 -0.127502,0.626221 -0.543457,1.630436c-0.294128,0.710094 -1.042206,1.297211 -1.630463,2.717396c-0.41597,1.004215 -0.731613,2.013847 -1.630417,3.260872c-0.710571,0.98587 -0.953979,2.245655 -2.17392,4.347828c-0.983551,1.694832 -2.375732,3.123238 -3.804352,5.434792c-1.277786,2.067513 -2.526566,3.910751 -3.804352,5.978264c-1.428619,2.311554 -3.637253,4.992401 -4.347824,5.978271c-0.898804,1.247032 -1.630432,2.173912 -2.17392,3.260872c-0.543488,1.08696 -1.818573,2.01384 -2.717392,3.260872c-0.710571,0.98587 -1.630447,2.7174 -2.717392,4.347832c-1.08696,1.63044 -2.811478,4.267784 -3.26088,4.891304c-0.710571,0.98587 -0.962097,1.644981 -1.08696,2.17392c-0.279205,1.182739 -0.671005,1.713173 -1.08696,2.717392c-0.294128,0.710083 -0.543472,1.630432 -0.543472,2.717392c0,0.54348 0.041367,1.294937 0.543472,1.08696c0.710098,-0.294128 1.314606,-0.771118 2.17392,-1.63044c0.859314,-0.859314 1.08696,-2.173904 2.17392,-3.260872c0.543472,-0.54348 1.463333,-2.275009 2.173904,-3.260872c0.449417,-0.62352 1.314606,-1.314598 2.17392,-2.173912c0.859329,-0.859314 1.08696,-2.17392 2.17392,-3.804352c1.08696,-1.63044 2.078506,-2.770592 2.717392,-3.804352c1.428604,-2.311562 2.357346,-3.972832 3.26088,-5.434792c0.808136,-1.307602 2.040924,-2.789131 3.260864,-4.891304c0.983551,-1.694832 1.813858,-3.429352 2.717392,-4.891312c0.808151,-1.307617 2.362061,-2.55732 3.26088,-3.804352c1.421143,-1.971733 1.315445,-2.76403 1.630432,-3.804352c0.567841,-1.87545 1.818604,-2.557304 2.717407,-3.804352c0.710571,-0.985859 1.086945,-1.630428 1.630432,-2.717392c0.543457,-1.086952 1.585663,-1.840687 2.17392,-3.260872c0.207977,-0.50211 0.543457,-2.173916 1.086945,-2.717396c0.543488,-0.54348 1.336304,-1.463821 1.630432,-2.173916c0.415955,-1.004215 0.792847,-2.007301 1.086975,-2.717392c0.415955,-1.004219 0.418579,-1.644974 0.543457,-2.173916c0.279205,-1.182751 0.543488,-1.630436 0.543488,-2.173916c0,-0.54348 0.15918,-0.702652 0.543488,-1.086956c0.384308,-0.3843 0,-1.08696 0,-1.630436c0,-0.54348 0.543457,-0.54348 0.543457,-1.08696c0,-0.54348 0,-1.086956 0,-1.630436c0,-0.54348 0.543488,-0.54348 0.543488,-1.086956l0,-0.54348l0,0.54348" id="svg_43" fill-opacity="null" stroke-opacity="null" stroke-width="11" stroke="#000" fill="none"/>
  <path d="m297.880432,30.97817c0,0.543478 0,1.086958 0,1.630438c0,1.086956 -0.78717,2.068283 -1.630432,4.347828c-0.777466,2.101631 -0.919861,3.905445 -1.630432,4.891312c-0.449402,0.623516 -0.792816,1.463837 -1.086945,2.173912c-0.415955,1.004223 -0.771149,1.858078 -1.630463,2.717396c-0.859314,0.859306 -1.463318,1.731533 -2.173889,2.717392c-0.449402,0.623524 -0.702667,1.24614 -1.086975,1.63044c-0.384277,0.384281 -0.702637,0.702656 -1.086945,1.086956c-0.384308,0.384304 -1.246155,0.159199 -1.630432,0.54348c-0.384308,0.384296 -0.543488,0.543476 -0.543488,1.086956l-0.543488,0l0,0.54348" id="svg_46" fill-opacity="null" stroke-opacity="null" stroke-width="11" stroke="#000" fill="none"/>
  <path d="m220.743027,133.359131c0,0 -0.619186,0 -0.928787,0c-0.309601,0 -0.619202,0 -0.928787,0c-0.309601,0 -0.619202,0 -1.238403,0c-0.309586,0 -1.857574,0 -2.786377,0c-0.619186,0 -1.245346,0.11348 -2.167175,0c-1.266937,-0.155975 -2.167191,-0.309601 -3.405579,-0.309601c-0.619186,0 -1.595123,0.236938 -2.167175,0c-0.40451,-0.167542 -1.238388,-0.309586 -1.85759,-0.309586c-0.309601,0 -0.928787,0 -1.238388,0c-0.619202,0 -1.238388,0 -1.547989,0c-0.309601,0 -0.619202,0 -1.238388,0c-0.309601,0 -0.928787,0 -1.238388,0c-0.309601,0 -0.619202,0 -0.928802,0c-0.309586,0 -0.400284,0.090683 -0.619186,0.309586c-0.218918,0.218918 -0.619202,0 -1.547989,0c-0.928787,0 -1.51944,0.153625 -2.786377,0.309601c-0.614563,0.075653 -1.238388,0 -2.167191,0c-0.619186,0 -0.928787,0 -1.238388,0c-0.619186,0 -0.928787,0 -1.238388,0c-0.619186,0 -0.89119,0.152771 -1.85759,0.309601c-0.611191,0.099182 -1.238388,0 -1.547974,0c-0.619202,0 -0.928802,0 -1.547989,0c-0.309601,0 -0.619202,0 -1.238403,0c-0.309586,0 -0.709869,0.090683 -0.928787,0.309601c-0.218903,0.218903 -0.218918,0.709869 0,0.928787c0.218918,0.218918 0.400284,0.090683 0.619202,0.309601c0.218918,0.218918 0.309586,0.309601 0.619186,0.309601c0.309601,0 0.619202,0 0.928802,0c0.619186,0 0.928787,0 1.547989,0c0.309586,0 0.218903,-0.090698 0,-0.309601c-0.218918,-0.218918 -0.298401,-0.345474 -1.238403,-0.619202c-1.225601,-0.356903 -2.799179,-0.262299 -4.024765,-0.619186c-0.939987,-0.273727 -1.547989,-0.309601 -2.167175,-0.309601c-0.619202,0 -0.928802,0 -1.238388,0c-0.619202,0 -0.928802,0 -2.167191,0c-0.619186,0 -0.928787,0 -0.619186,0c0.309586,0 0.524277,0.142044 0.928787,0.309601c1.430161,0.592392 2.79837,-0.148773 3.715164,0c0.9664,0.156815 1.85759,0.309586 2.476791,0.309586c0.928787,0 1.547974,0 3.095963,0c0.619202,0 1.547989,0 2.167191,0c0.928787,0 2.167175,0 2.786377,0c0.619186,0 1.238388,0 2.167175,0c0.928802,0 1.85759,0 2.786377,0c0.309601,0 0,0 -0.619186,0c-1.547989,0 -3.405579,0.309601 -5.572754,0.309601c-1.85759,0 -3.405579,0 -4.643967,0c-0.928787,0 -2.167175,0 -2.476776,0c-1.238388,0 -2.167191,0 -2.476791,0c-0.309586,0 -0.619186,0 -0.928787,0c-0.619186,0 -0.928787,0 -1.238388,0c-0.309601,0 -0.619202,0 0,0c1.547989,0 3.405579,0 4.953568,0c2.167175,0 3.715164,0 5.572754,0c1.547989,0 3.095963,0 4.334366,0c1.238388,0 2.476776,0 3.715164,0c1.238388,0 2.476776,0 3.405579,0c0.928787,0 1.857574,0 3.715164,0c0.928787,0 1.85759,0 2.786377,0c0.928787,0 1.85759,0 2.476776,0c1.238388,0 2.167191,0 3.405579,0c1.238388,0 2.786377,0 4.643967,0c1.547989,0 2.167175,0 2.476776,0c0.619202,0 0.928787,0 1.238388,0c0.619202,0 0.928787,0 0.619202,0c-0.309601,0 -0.619202,0 -0.928802,0c-0.309586,0 -0.619186,0 -0.928787,0c-0.619202,0 -1.183823,0.150543 -1.85759,0.309601c-0.903946,0.213394 -2.786377,0 -4.643951,0c-2.786392,0 -5.263168,-0.309601 -7.120743,-0.309601c-1.85759,0 -3.715179,0 -6.811157,0c-1.857574,0 -4.334366,-0.309601 -6.501541,-0.309601c-1.85759,0 -3.377029,-0.463211 -4.643967,-0.619186c-0.921829,-0.11348 -2.167175,0 -3.095978,0c-0.928787,0 -2.167175,0 -2.786377,0c-0.619186,0 -1.238388,0 -1.85759,0c-0.309586,0 -0.619186,0 -0.928787,0l-0.619186,0l-0.309601,0" id="svg_48" fill-opacity="null" stroke-opacity="null" stroke-width="6" stroke="#000" fill="none"/>
 </g>
</svg>